#!OML:ASF E:\Steps\Project 1\Capture day 1\Session 2\Subject.ASF
:FULLY-SPECIFIED
:DEGREES
146
root 7.17386 16.1688 30.6102 -156.324 6.14755 177.076
lowerback -24.2808 -0.870383 -6.7519
upperback 0.0566111 1.16546 -0.716862
thorax 13.6563 0.216141 3.49879
lowerneck -3.3507 -2.08587 -2.11958
upperneck 20.4719 -1.81287 2.60005
head 6.82587 -0.309115 1.13187
rclavicle 7.05686e-015 3.30976e-014
rhumerus -37.8351 -16.7288 -77.1963
rradius 33.9958
rwrist -2.0312
rhand -9.54992 -49.5767
rfingers 7.12502
rthumb 16.417 -78.902
lclavicle 7.05686e-015 3.30976e-014
lhumerus -34.8238 6.38708 78.5207
lradius 26.126
lwrist -3.71448
lhand -17.8126 -15.0495
lfingers 7.12502
lthumb 8.45118 14.7614
rfemur -20.4975 4.76835 21.8756
rtibia 11.1061
rfoot -25.0674 -3.89473
rtoes -26.1907
lfemur -51.0504 -9.35497 -18.2687
ltibia 38.3318
lfoot -11.1885 5.4169
ltoes -37.0323
147
root 7.18195 16.1597 30.5668 -156.15 6.31867 177.1
lowerback -24.4551 -0.830457 -6.74148
upperback -0.0077812 1.24113 -0.744294
thorax 13.6712 0.257449 3.49171
lowerneck -3.1332 -2.04681 -2.25372
upperneck 20.244 -1.79563 2.80832
head 6.71657 -0.301099 1.22161
rclavicle -8.97016e-015 2.48481e-015
rhumerus -37.6749 -16.3068 -77.4708
rradius 34.2444
rwrist -2.42049
rhand -9.33777 -50.0536
rfingers 7.12502
rthumb 16.6213 -79.3618
lclavicle -8.97016e-015 2.48481e-015
lhumerus -34.9556 6.45659 78.3481
lradius 25.7635
lwrist -3.83515
lhand -17.8528 -14.8583
lfingers 7.12502
lthumb 8.4124 14.9542
rfemur -20.5095 4.58518 21.9249
rtibia 11.0781
rfoot -25.1992 -3.68179
rtoes -26.6603
lfemur -51.369 -9.31116 -18.063
ltibia 37.3588
lfoot -10.951 4.93731
ltoes -33.302
148
root 7.18999 16.1492 30.5227 -155.936 6.35697 177.164
lowerback -24.6256 -0.819622 -6.66439
upperback -0.0815841 1.25898 -0.768285
thorax 13.68 0.277848 3.43011
lowerneck -2.97018 -2.0646 -2.28991
upperneck 20.0904 -1.85859 3.00093
head 6.64201 -0.323211 1.28477
rclavicle -2.90723e-015 -1.47101e-014
rhumerus -37.4387 -16.0243 -77.7593
rradius 34.3227
rwrist -2.5873
rhand -9.42067 -50.6654
rfingers 7.12502
rthumb 16.5415 -79.9803
lclavicle -2.90723e-015 -1.47101e-014
lhumerus -35.0175 6.5897 78.1213
lradius 25.3724
lwrist -3.94772
lhand -17.7673 -14.6181
lfingers 7.12502
lthumb 8.49492 15.191
rfemur -20.5211 4.77389 21.9801
rtibia 10.9981
rfoot -25.2375 -3.82113
rtoes -26.4578
lfemur -51.7605 -9.37211 -17.7635
ltibia 36.3897
lfoot -10.4878 4.78357
ltoes -32.4304
149
root 7.19943 16.1474 30.4748 -156.091 6.46739 177.322
lowerback -24.4222 -0.751788 -6.57413
upperback -0.0509166 1.28907 -0.720489
thorax 13.5982 0.293503 3.43916
lowerneck -3.20148 -2.11527 -2.28112
upperneck 20.3972 -1.88856 2.87991
head 6.78146 -0.335742 1.24439
rclavicle 2.5842e-015 1.61016e-014
rhumerus -37.0881 -15.7744 -78.0281
rradius 34.2931
rwrist -2.47539
rhand -9.33207 -50.6246
rfingers 7.12502
rthumb 16.6268 -79.9324
lclavicle 2.5842e-015 1.61016e-014
lhumerus -34.9794 6.99622 77.868
lradius 24.8166
lwrist -4.24229
lhand -17.9909 -14.3369
lfingers 7.12502
lthumb 8.27908 15.4808
rfemur -20.142 5.02527 22.1595
rtibia 10.9685
rfoot -25.3109 -3.86784
rtoes -26.4791
lfemur -51.6121 -9.28884 -17.5142
ltibia 35.3179
lfoot -9.95009 4.94246
ltoes -34.5677
150
root 7.20718 16.1394 30.4274 -156.038 6.52402 177.528
lowerback -24.4426 -0.679909 -6.43383
upperback -0.0605026 1.33245 -0.65293
thorax 13.5939 0.318769 3.45163
lowerneck -3.43904 -2.13052 -2.27676
upperneck 20.7363 -1.85332 2.71064
head 6.93093 -0.319098 1.19392
rclavicle -8.72168e-015 1.78906e-015
rhumerus -36.7685 -15.5307 -78.2386
rradius 34.2706
rwrist -2.39459
rhand -9.28231 -50.2664
rfingers 7.12502
rthumb 16.6747 -79.5702
lclavicle -8.72168e-015 1.78906e-015
lhumerus -34.9241 7.47626 77.617
lradius 24.3072
lwrist -4.52686
lhand -17.9484 -14.0297
lfingers 7.12502
lthumb 8.32012 15.7864
rfemur -20.0733 5.03802 22.4352
rtibia 11.1371
rfoot -25.4983 -3.78306
rtoes -27.0446
lfemur -51.7536 -9.16497 -17.2105
ltibia 34.3547
lfoot -9.27963 5.0618
ltoes -35.907
151
root 7.20659 16.1315 30.3685 -156.312 6.4093 177.358
lowerback -24.2601 -0.689575 -6.48166
upperback 0.0331767 1.32691 -0.745785
thorax 13.604 0.311298 3.3667
lowerneck -3.47092 -2.15995 -2.16644
upperneck 20.7928 -1.89012 2.65746
head 6.95412 -0.33 1.15604
rclavicle -1.09829e-014 3.24019e-014
rhumerus -36.5531 -15.2912 -78.5251
rradius 34.3224
rwrist -2.43763
rhand -9.47825 -50.1702
rfingers 7.12502
rthumb 16.486 -79.4897
lclavicle -1.09829e-014 3.24019e-014
lhumerus -34.9346 7.72785 77.3438
lradius 23.9494
lwrist -4.64342
lhand -17.5282 -14.0683
lfingers 7.12502
lthumb 8.72569 15.7313
rfemur -19.5136 4.64552 22.3213
rtibia 11.1125
rfoot -25.7905 -3.79691
rtoes -27.6836
lfemur -51.4399 -9.46558 -17.3791
ltibia 33.1692
lfoot -8.5757 5.00539
ltoes -36.4575
152
root 7.21267 16.1156 30.3224 -156.09 6.51021 177.259
lowerback -24.3957 -0.695516 -6.54869
upperback -0.0452874 1.37306 -0.836102
thorax 13.585 0.340192 3.32114
lowerneck -3.7389 -2.2869 -2.07415
upperneck 21.0628 -2.05755 2.62387
head 7.09231 -0.3981 1.11872
rclavicle -1.71949e-014 1.0138e-014
rhumerus -36.3963 -14.9283 -78.8909
rradius 34.5225
rwrist -2.64266
rhand -9.65524 -50.4587
rfingers 7.12502
rthumb 16.3156 -79.7923
lclavicle -1.71949e-014 1.0138e-014
lhumerus -34.9505 8.0273 77.0063
lradius 23.5194
lwrist -4.88557
lhand -17.248 -14.4359
lfingers 7.12502
lthumb 8.99601 15.3523
rfemur -19.6316 4.52925 22.2186
rtibia 11.2281
rfoot -26.0389 -3.75077
rtoes -27.8975
lfemur -51.7706 -9.35268 -17.4902
ltibia 32.2278
lfoot -8.04578 4.86073
ltoes -37.6368
